<svg width="1080" height="1080" viewBox="0 0 1080 1080" fill="none" xmlns="http://www.w3.org/2000/svg">
<circle cx="540.5" cy="547.5" r="522.5" fill="#0B0C10" stroke="#66FCF1" stroke-width="20"/>
<path d="M293.725 449.752L491.586 249.932C504.083 237.181 521.235 230 539 230H677.319C689.571 230 701.455 232.476 712.236 237.181C728.285 244.114 742.007 255.504 751.686 269.989C756.464 277.169 760.384 285.217 762.957 293.759C765.53 302.302 767 311.339 767 320.624V773.376C767 785.756 764.55 797.765 759.894 808.66C753.033 824.878 741.762 838.744 727.428 848.525C720.322 853.353 712.358 857.315 703.905 859.914C695.451 862.514 686.508 864 677.319 864H363.681C351.429 864 339.545 861.524 328.764 856.819C312.715 849.886 298.993 838.496 289.314 824.011C284.536 816.831 280.616 808.783 278.043 800.241C275.47 791.699 274 782.661 274 773.376V497.788C274 479.836 281.106 462.504 293.725 449.752ZM350.449 456.314H475.66C478.845 456.314 481.663 455.695 484.358 454.58C488.401 452.847 491.832 450 494.282 446.409C495.507 444.552 496.487 442.571 497.1 440.467C497.712 438.362 498.08 436.134 498.08 433.781V307.13L350.449 456.314ZM322.393 790.956C325.824 799.003 331.46 806.06 338.688 810.888C342.241 813.364 346.161 815.221 350.449 816.583C354.615 817.945 359.148 818.564 363.803 818.564H677.319C683.567 818.564 689.448 817.326 694.716 814.974C702.68 811.507 709.663 805.812 714.441 798.508C716.891 794.917 718.729 790.956 720.077 786.623C721.424 782.413 722.037 777.832 722.037 773.128V320.501C722.037 314.187 720.812 308.244 718.484 302.921C715.054 294.873 709.418 287.816 702.19 282.988C698.637 280.512 694.716 278.655 690.428 277.293C686.263 275.931 681.73 275.312 677.074 275.312H542.92V433.657C542.92 442.943 541.083 451.98 537.652 460.152C532.506 472.408 524.053 482.684 513.272 489.988C507.881 493.702 502 496.55 495.63 498.531C489.259 500.512 482.52 501.626 475.66 501.626H318.84V773.376C318.84 779.69 320.066 785.632 322.393 790.956Z" fill="#66FCF1"/>
<path d="M596.057 701.809V718.719H548.939V701.809H596.057ZM558.84 682.369H583.193V754.49C583.193 756.562 583.434 758.176 583.916 759.332C584.398 760.44 585.217 761.235 586.373 761.717C587.577 762.15 589.167 762.367 591.143 762.367C592.54 762.367 593.696 762.343 594.611 762.295C595.527 762.199 596.394 762.078 597.213 761.934V779.35C595.141 780.024 592.973 780.53 590.709 780.867C588.445 781.253 586.036 781.445 583.482 781.445C578.279 781.445 573.823 780.626 570.113 778.988C566.452 777.35 563.658 774.773 561.73 771.256C559.803 767.739 558.84 763.162 558.84 757.525V682.369ZM635.586 780H611.088V695.449C611.088 689.379 612.316 684.272 614.773 680.129C617.23 675.986 620.699 672.854 625.18 670.734C629.66 668.566 634.96 667.482 641.078 667.482C643.198 667.482 645.197 667.627 647.076 667.916C648.955 668.205 650.786 668.566 652.568 669L652.641 686.922C651.773 686.681 650.882 686.512 649.967 686.416C649.051 686.32 647.919 686.271 646.57 686.271C644.21 686.271 642.21 686.633 640.572 687.355C638.934 688.03 637.682 689.066 636.814 690.463C635.995 691.812 635.586 693.474 635.586 695.449V780ZM650.762 701.809V718.719H599.814V701.809H650.762ZM661.096 768.582C661.096 765.113 662.348 762.223 664.854 759.91C667.359 757.549 670.587 756.369 674.537 756.369C678.536 756.369 681.764 757.549 684.221 759.91C686.726 762.223 687.979 765.113 687.979 768.582C687.979 772.051 686.726 774.965 684.221 777.326C681.764 779.639 678.536 780.795 674.537 780.795C670.587 780.795 667.359 779.639 664.854 777.326C662.348 774.965 661.096 772.051 661.096 768.582Z" fill="#66FCF1"/>
<path d="M379 547H668" stroke="#66FCF1" stroke-width="20"/>
<path d="M502 484L667 484" stroke="#66FCF1" stroke-width="20"/>
<path d="M379 618H668" stroke="#66FCF1" stroke-width="20"/>
</svg>
